<?xml version="1.0" encoding="UTF-8" standalone="no"?>
<!-- Created with Inkscape (http://www.inkscape.org/) -->

<svg
   width="63.656574mm"
   height="13.534457mm"
   viewBox="0 0 63.656574 13.534457"
   version="1.1"
   id="svg6203"
   xmlns:xlink="http://www.w3.org/1999/xlink"
   xmlns="http://www.w3.org/2000/svg"
   xmlns:svg="http://www.w3.org/2000/svg">
  <defs
     id="defs6200">
    <linearGradient
       xlink:href="#linearGradient56110"
       id="linearGradient120001"
       gradientUnits="userSpaceOnUse"
       gradientTransform="matrix(0.85702615,0,0,0.85702615,22.774481,25.125444)"
       x1="20.967752"
       y1="109.33063"
       x2="85.855629"
       y2="110.43822" />
    <linearGradient
       id="linearGradient56110">
      <stop
         style="stop-color:#4257a6;stop-opacity:1;"
         offset="0"
         id="stop56106" />
      <stop
         style="stop-color:#8c61aa;stop-opacity:1"
         offset="1"
         id="stop56108" />
    </linearGradient>
  </defs>
  <g
     id="layer1"
     transform="translate(-36.439486,-112.52542)">
    <path
       id="path119999"
       style="color:#000000;fill:#ffffff;fill-opacity:1;stroke-width:0.190771;stroke-linecap:round;-inkscape-stroke:none"
       d="m 41.655331,123.28014 a 1.0647495,1.0647495 0 0 0 1.06079,-1.06862 c -0.003,-0.94005 0.37098,-1.84086 1.03955,-2.50163 0.66858,-0.66078 1.57365,-1.02452 2.51356,-1.01012 a 1.0647495,1.0647495 0 0 0 1.08091,-1.04812 1.0647495,1.0647495 0 0 0 -1.04849,-1.08091 c -1.51074,-0.0232 -2.96845,0.56244 -4.04308,1.62453 -1.07465,1.0621 -1.67724,2.51284 -1.67185,4.02371 a 1.0647495,1.0647495 0 0 0 1.06861,1.06116 z m 0.47909,-10.75471 a 1.0647495,1.0647495 0 0 0 -1.06079,1.06862 c 0.003,0.94004 -0.37098,1.84085 -1.03955,2.50163 -0.66858,0.66078 -1.57365,1.02452 -2.51356,1.01012 a 1.0647495,1.0647495 0 0 0 -1.08091,1.04811 1.0647495,1.0647495 0 0 0 1.04849,1.08092 c 1.51074,0.0231 2.96845,-0.56245 4.04308,-1.62454 1.07465,-1.06209 1.67724,-2.51283 1.67185,-4.0237 a 1.0647495,1.0647495 0 0 0 -1.06861,-1.06116 z m 56.749107,10.98249 q -0.52167,0 -0.80364,-0.29608 -0.2679,-0.31018 -0.2679,-0.86005 v -4.82193 q 0,-0.56397 0.2679,-0.86005 0.28197,-0.31017 0.80364,-0.31017 0.50758,0 0.77546,0.31017 0.28199,0.29608 0.28199,0.86005 v 4.82193 q 0,0.54987 -0.26789,0.86005 -0.26789,0.29608 -0.78956,0.29608 z m 0,-8.30442 q -0.59216,0 -0.91644,-0.26789 -0.31018,-0.28198 -0.31018,-0.78955 0,-0.52167 0.31018,-0.78956 0.32428,-0.28198 0.91644,-0.28198 0.59218,0 0.90235,0.28198 0.310182,0.26789 0.310182,0.78956 0,0.50757 -0.310182,0.78955 -0.31017,0.26789 -0.90235,0.26789 z m -6.38457,8.34672 q -0.87415,0 -1.45222,-0.32428 -0.57806,-0.32428 -0.86005,-0.97284 -0.26788,-0.66266 -0.26788,-1.63551 v -3.18642 q 0,-0.53577 0.26788,-0.80366 0.28199,-0.26787 0.78956,-0.26787 0.50756,0 0.78955,0.26787 0.28198,0.26789 0.28198,0.80366 v 3.24282 q 0,0.62036 0.25379,0.93054 0.25378,0.29609 0.80366,0.29609 0.60626,0 0.98693,-0.42298 0.39479,-0.43707 0.39479,-1.14204 v -2.90443 q 0,-0.53577 0.26788,-0.80366 0.28199,-0.26787 0.78956,-0.26787 0.52167,0 0.78955,0.26787 0.28199,0.26789 0.28199,0.80366 v 5.00522 q 0,1.08563 -1.02925,1.08563 -0.50757,0 -0.77545,-0.28198 -0.26789,-0.28199 -0.26789,-0.80365 v -0.94465 l 0.21149,0.54987 q -0.31018,0.71906 -0.88825,1.11383 -0.57806,0.39478 -1.36762,0.39478 z m -4.80547,2.50966 q -0.52167,0 -0.78955,-0.28199 -0.26789,-0.26788 -0.26789,-0.80365 V 122.098 h 0.15509 q -0.22558,0.64856 -0.86005,1.05744 -0.62036,0.39478 -1.43812,0.39478 -0.90235,0 -1.5932,-0.43707 -0.67676,-0.43708 -1.05745,-1.25484 -0.38067,-0.81774 -0.38067,-1.93159 0,-1.11383 0.38067,-1.91748 0.38069,-0.80366 1.05745,-1.24073 0.69085,-0.43708 1.5932,-0.43708 0.83186,0 1.46632,0.42298 0.64856,0.40888 0.84595,1.08563 l -0.1551,0.54987 v -0.95874 q 0,-0.52167 0.2679,-0.78956 0.28197,-0.28197 0.78955,-0.28197 0.50757,0 0.77545,0.28197 0.28199,0.26789 0.28199,0.78956 v 7.54307 q 0,0.53577 -0.28199,0.80365 -0.28198,0.28199 -0.78955,0.28199 z m -2.56606,-4.10287 q 0.46528,0 0.80366,-0.22558 0.33838,-0.22559 0.53577,-0.66267 0.19739,-0.45117 0.19739,-1.14204 0,-1.02923 -0.42297,-1.5086 -0.42298,-0.49347 -1.11385,-0.49347 -0.45117,0 -0.80365,0.21148 -0.33838,0.21149 -0.53577,0.66266 -0.18329,0.43707 -0.18329,1.12793 0,1.02925 0.42298,1.53682 0.42297,0.49347 1.09973,0.49347 z m -7.16003,1.59321 q -0.62037,0 -1.28303,-0.11279 -0.64856,-0.11279 -1.18433,-0.38068 -0.28198,-0.14099 -0.40888,-0.35248 -0.11279,-0.22559 -0.0987,-0.45117 0.0141,-0.22559 0.14099,-0.40888 0.14099,-0.1833 0.35248,-0.23969 0.22558,-0.0705 0.49347,0.0423 0.57807,0.23969 1.05743,0.33838 0.47938,0.0987 0.94465,0.0987 0.60627,0 0.87415,-0.18329 0.28199,-0.19739 0.28199,-0.50756 0,-0.28199 -0.18329,-0.42298 -0.18329,-0.141 -0.53577,-0.19739 l -1.48041,-0.26789 q -0.87416,-0.15509 -1.35353,-0.63447 -0.46527,-0.49346 -0.46527,-1.25482 0,-0.70496 0.39477,-1.21253 0.39478,-0.52167 1.08564,-0.78956 0.70497,-0.28197 1.59321,-0.28197 0.63447,0 1.17024,0.11278 0.53577,0.1128 1.02923,0.36658 0.25379,0.12689 0.35249,0.33838 0.11279,0.21149 0.0705,0.43708 -0.0282,0.22559 -0.16919,0.40887 -0.14099,0.18329 -0.36658,0.23969 -0.21149,0.0564 -0.49348,-0.0564 -0.45117,-0.21148 -0.83185,-0.29608 -0.38067,-0.0987 -0.73315,-0.0987 -0.63447,0 -0.91645,0.21149 -0.28198,0.19739 -0.28198,0.50757 0,0.23969 0.15508,0.40887 0.1692,0.1551 0.50758,0.2115 l 1.48041,0.26788 q 0.91645,0.15509 1.39582,0.62036 0.47937,0.45118 0.47937,1.24074 0,1.07153 -0.84595,1.6919 -0.83185,0.60626 -2.22767,0.60626 z m -8.16342,0 q -0.76136,0 -1.36763,-0.29609 -0.60626,-0.29608 -0.94464,-0.80364 -0.33838,-0.50758 -0.33838,-1.14204 0,-0.76136 0.39478,-1.19843 0.39478,-0.45118 1.28302,-0.63447 0.88825,-0.19739 2.35457,-0.19739 h 0.74726 v 1.09975 h -0.73316 q -0.71906,0 -1.17024,0.0846 -0.43707,0.0705 -0.63446,0.25378 -0.18329,0.18329 -0.18329,0.50757 0,0.39477 0.26789,0.64857 0.28198,0.25378 0.80365,0.25378 0.40888,0 0.71906,-0.1833 0.32428,-0.19738 0.50757,-0.52167 0.18328,-0.33838 0.18328,-0.76135 v -1.62141 q 0,-0.62036 -0.28197,-0.87415 -0.28199,-0.26788 -0.95875,-0.26788 -0.38067,0 -0.83185,0.0987 -0.43708,0.0846 -0.97285,0.29608 -0.31018,0.14099 -0.54987,0.0705 -0.23968,-0.0846 -0.36657,-0.28198 -0.12689,-0.21149 -0.12689,-0.45118 0,-0.25379 0.14099,-0.47937 0.14099,-0.23969 0.46527,-0.35248 0.66267,-0.26788 1.24073,-0.36657 0.59216,-0.0987 1.08564,-0.0987 1.08564,0 1.77649,0.32428 0.70497,0.31018 1.05744,0.97284 0.35248,0.64856 0.35248,1.6778 v 3.13002 q 0,0.52168 -0.25378,0.80366 -0.25378,0.28198 -0.73316,0.28198 -0.47937,0 -0.74726,-0.28198 -0.25378,-0.28198 -0.25378,-0.80366 v -0.52167 l 0.0987,0.0846 q -0.0846,0.47938 -0.36659,0.83185 -0.26788,0.33838 -0.69085,0.53577 -0.42298,0.1833 -0.97285,0.1833 z m -8.75092,-0.0282 q -0.521667,0 -0.803647,-0.28198 -0.26789,-0.28199 -0.26789,-0.80365 v -8.02245 q 0,-0.53577 0.26789,-0.80366 0.28198,-0.28197 0.803647,-0.28197 0.50757,0 0.77546,0.28197 0.28198,0.26789 0.28198,0.80366 v 3.35561 h -0.19739 q 0.32429,-0.69086 0.95875,-1.05744 0.64856,-0.38068 1.46632,-0.38068 0.83185,0 1.36762,0.32428 0.53576,0.31018 0.80365,0.95875 0.26788,0.63446 0.26788,1.6214 v 3.20053 q 0,0.52166 -0.28198,0.80365 -0.26789,0.28198 -0.78955,0.28198 -0.50757,0 -0.78956,-0.28198 -0.26788,-0.28199 -0.26788,-0.80365 v -3.10183 q 0,-0.71906 -0.26789,-1.02924 -0.25378,-0.32429 -0.78955,-0.32429 -0.67676,0 -1.08564,0.42298 -0.39478,0.42298 -0.39478,1.12794 v 2.90444 q 0,1.08563 -1.05744,1.08563 z m -5.710137,0.0282 q -1.60731,0 -2.74935,-0.63446 -1.14203,-0.63447 -1.7624,-1.7765 -0.60626,-1.15614 -0.60626,-2.72114 0,-1.17023 0.33838,-2.10079 0.35248,-0.94464 1.01514,-1.60731 0.66266,-0.67676 1.60731,-1.04333 0.95874,-0.36659 2.15718,-0.36659 0.70495,0 1.42401,0.1833 0.73316,0.16919 1.26893,0.49347 0.35248,0.19738 0.47937,0.49347 0.1269,0.29608 0.0705,0.59217 -0.0423,0.29608 -0.23968,0.50756 -0.1833,0.21149 -0.46528,0.26789 -0.28198,0.0564 -0.63446,-0.12689 -0.42298,-0.25379 -0.88825,-0.36658 -0.46527,-0.1128 -0.94465,-0.1128 -0.94464,0 -1.59321,0.38069 -0.63446,0.36657 -0.95874,1.07154 -0.32428,0.70495 -0.32428,1.7342 0,1.01513 0.32428,1.73419 0.32428,0.71906 0.95874,1.09975 0.64857,0.36657 1.59321,0.36657 0.45118,0 0.91645,-0.11279 0.47937,-0.11279 0.91645,-0.35248 0.36658,-0.1833 0.64856,-0.12689 0.29608,0.0423 0.47937,0.25378 0.19739,0.19739 0.23969,0.47937 0.0564,0.28199 -0.0564,0.56397 -0.1128,0.28198 -0.42298,0.47937 -0.52167,0.35248 -1.28302,0.54987 -0.76136,0.19739 -1.50862,0.19739 z" />
  </g>
</svg>
