<svg width="32" height="32" viewBox="0 0 32 32" fill="none" xmlns="http://www.w3.org/2000/svg">
<g filter="url(#filter0_d_2368_194)">
<circle cx="16.4198" cy="11.5804" r="11.5804" fill="#929292"/>
<path d="M16.9299 13.1636L17.8044 13.5159L17.8269 13.525H17.8512H19.4476C19.6875 13.525 19.8783 13.4222 20.0286 13.2641C20.1829 13.1017 20.2568 12.9024 20.2568 12.686C20.2568 12.5045 20.2151 12.3428 20.1248 12.2067C20.0346 12.0706 19.902 11.9695 19.736 11.899L19.736 11.8989L19.7325 11.8975L15.5873 10.2835L15.5655 10.275H15.542H14.4301H14.3051V10.4V15.8V15.8929L14.3942 15.9197L18.3853 17.1197L18.4268 17.1322L18.4671 17.1163L23.0455 15.3163L23.1233 15.2858L23.1248 15.2022C23.1311 14.8497 23.0035 14.537 22.7608 14.275C22.5145 14.0092 22.2017 13.875 21.8424 13.875H17.8735L16.8221 13.4867L16.9299 13.1636ZM13.4148 10.4V10.275H13.2898H11H10.875V10.4V17V17.125H11H13.2898H13.4148V17V10.4ZM19.5617 11.125C21.2103 11.125 22.5375 9.71895 22.5375 8C22.5375 6.28105 21.2103 4.875 19.5617 4.875C17.913 4.875 16.5858 6.28105 16.5858 8C16.5858 9.71895 17.913 11.125 19.5617 11.125Z" fill="white" stroke="black" stroke-width="0.25"/>
</g>
<defs>
<filter id="filter0_d_2368_194" x="0.839355" y="0" width="31.1606" height="31.1606" filterUnits="userSpaceOnUse" color-interpolation-filters="sRGB">
<feFlood flood-opacity="0" result="BackgroundImageFix"/>
<feColorMatrix in="SourceAlpha" type="matrix" values="0 0 0 0 0 0 0 0 0 0 0 0 0 0 0 0 0 0 127 0" result="hardAlpha"/>
<feOffset dy="4"/>
<feGaussianBlur stdDeviation="2"/>
<feComposite in2="hardAlpha" operator="out"/>
<feColorMatrix type="matrix" values="0 0 0 0 0 0 0 0 0 0 0 0 0 0 0 0 0 0 0.25 0"/>
<feBlend mode="normal" in2="BackgroundImageFix" result="effect1_dropShadow_2368_194"/>
<feBlend mode="normal" in="SourceGraphic" in2="effect1_dropShadow_2368_194" result="shape"/>
</filter>
</defs>
</svg>
