<svg width="35" height="31" viewBox="0 0 35 31" fill="none" xmlns="http://www.w3.org/2000/svg">
<g filter="url(#filter0_d_2368_200)">
<path d="M30.0166 11.0036C30.0166 5.4547 24.1933 0.929688 17.0093 0.929688C9.82526 0.929688 4.00196 5.4547 4.00196 11.0036C4.00196 11.1475 4 11.5422 4 11.5933C4 17.4811 9.08999 22.2499 17.0073 22.2499C24.9717 22.2499 30.0166 17.4835 30.0166 11.5956C30.0166 11.389 30.0166 11.2706 30.0166 11.0036Z" fill="#7C7C7C"/>
<path d="M29.5186 10.9988C29.5186 16.2319 23.9188 20.4714 17.0112 20.4714C10.1037 20.4714 4.50391 16.2296 4.50391 10.9988C4.50391 5.76569 10.1037 1.52393 17.0112 1.52393C23.9188 1.52393 29.5186 5.76569 29.5186 10.9988Z" fill="#929292"/>
<path d="M12.8585 8.00864C12.8527 8.02257 12.7272 8.1758 12.8076 8.29885C13.0056 8.59835 13.6154 8.76783 14.231 8.60531C14.5977 8.5078 15.0683 8.06436 15.5251 7.63716C16.0192 7.17282 16.5094 6.70848 17.0015 6.52274C17.5231 6.3254 17.8564 6.4113 18.0779 6.49024C18.3211 6.57614 18.6054 6.7642 19.0583 7.16818C19.9151 7.9297 23.3542 11.4866 23.9503 12.1018C24.4287 11.8464 26.556 10.7599 29.4481 10.0053C29.1971 8.18044 28.2599 6.50881 26.8364 5.14133C24.8541 6.12805 22.4327 6.64115 20.0622 5.27134C20.0504 5.26438 18.7681 4.54697 17.5035 4.58179C15.6231 4.63287 14.8094 5.59638 13.9487 6.61561L12.8585 8.00864Z" fill="white"/>
<path d="M23.8111 12.4874C23.7699 12.4457 19.7662 8.29443 18.8584 7.48648C18.3329 7.01982 18.0407 6.90141 17.7349 6.85498C17.5761 6.82944 17.3545 6.86426 17.1996 6.91534C16.7781 7.05232 16.2251 7.4888 15.735 7.9485C15.2271 8.42677 14.7487 8.87718 14.3056 8.99559C13.739 9.1465 13.0449 8.96773 12.7292 8.71466C12.6017 8.61251 12.5116 8.4941 12.4684 8.37569C12.3527 8.0553 12.5665 7.79991 12.6017 7.7558L13.7076 6.33956C13.837 6.18865 13.9664 6.03541 14.0978 5.88682C13.7409 5.94254 13.4115 6.04934 13.09 6.15614C12.69 6.28848 12.3037 6.41617 11.9135 6.41617C11.7508 6.41617 10.8783 6.24669 10.7136 6.19329C9.71363 5.86825 8.83523 5.5525 7.52352 4.82812C5.95299 6.21418 4.90205 7.94618 4.59814 9.8523C4.82363 9.92195 5.18832 10.052 5.34125 10.0914C8.89797 11.0271 10.0058 11.9929 10.2058 12.1926C10.4234 11.907 10.7371 11.7236 11.0881 11.7236C11.4822 11.7236 11.8371 11.9581 12.0527 12.3203C12.2567 12.1299 12.537 11.9674 12.8998 11.9674C13.0645 11.9674 13.2351 12.0045 13.4076 12.0742C13.8095 12.2367 14.0154 12.5524 14.1233 12.8403C14.2585 12.7684 14.4232 12.715 14.6174 12.715C14.8095 12.715 15.0075 12.766 15.2095 12.8705C15.8644 13.2048 15.9683 13.9664 15.9075 14.5422C15.9546 14.5352 16.0016 14.5329 16.0487 14.5329C16.8251 14.5329 17.4584 15.2828 17.4584 16.2022C17.4584 16.4877 17.3976 16.7547 17.2898 16.9916C17.5016 17.1332 18.0407 17.4513 18.5133 17.3793C18.8917 17.3236 19.0348 17.1703 19.0858 17.0844C19.1211 17.0241 19.1583 16.9567 19.1231 16.9057L18.1192 15.5846C18.1192 15.5846 17.9545 15.3989 18.0094 15.3292C18.0662 15.2549 18.1682 15.3617 18.2407 15.4337C18.7505 15.9375 19.374 16.7013 19.374 16.7013C19.3838 16.7106 19.425 16.8058 19.6564 16.8546C19.8544 16.8964 20.2054 16.8731 20.4485 16.6363C20.5093 16.576 20.572 16.5017 20.623 16.4251C20.6191 16.4297 20.6152 16.4343 20.6112 16.4367C20.8681 16.0489 20.5818 15.6543 20.5818 15.6543L19.4113 14.0964C19.4113 14.0964 19.2427 13.913 19.3015 13.8387C19.3525 13.7737 19.4603 13.8712 19.5328 13.9432C19.9034 14.31 20.4269 14.9322 20.9308 15.5149C21.0289 15.6009 21.47 15.9236 22.0543 15.4685C22.4092 15.1922 22.4798 14.8556 22.47 14.6002C22.4445 14.2612 22.2229 14.0221 22.2229 14.0221L20.623 12.116C20.623 12.116 20.4544 11.9442 20.5132 11.8583C20.5622 11.7863 20.672 11.8908 20.7446 11.9627C21.2543 12.4665 22.6347 13.9664 22.6347 13.9664C22.6543 13.9826 23.1307 14.3843 23.7209 13.9408C23.9307 13.7806 24.066 13.5415 24.0778 13.2606C24.0993 12.7753 23.8111 12.4874 23.8111 12.4874Z" fill="white"/>
<path d="M16.0509 14.9018C15.8019 14.8971 15.5313 15.0736 15.496 15.0481C15.4764 15.0318 15.5117 14.9157 15.5352 14.8461C15.5587 14.7787 15.8862 13.6132 15.0901 13.2093C14.4804 12.8982 14.1078 13.2487 13.9804 13.4043C13.947 13.4461 13.9314 13.4414 13.9274 13.3904C13.9157 13.1814 13.8353 12.6126 13.3098 12.4245C12.5589 12.1529 12.0746 12.7728 11.951 12.998C11.8961 12.4895 11.5334 12.0972 11.0903 12.0972C10.608 12.0972 10.2178 12.5592 10.2158 13.1303C10.2158 13.7015 10.606 14.1635 11.0883 14.1635C11.3236 14.1635 11.5354 14.0544 11.6922 13.8756C11.6981 13.8802 11.7001 13.8918 11.6962 13.9104C11.6589 14.1658 11.5922 15.0945 12.4138 15.4729C12.7432 15.6238 13.0236 15.5124 13.2549 15.3197C13.3235 15.2617 13.3353 15.2872 13.3255 15.3638C13.2961 15.6029 13.3333 16.1137 13.9392 16.4039C14.4 16.6268 14.6725 16.3993 14.8509 16.2043C14.9294 16.1207 14.949 16.1346 14.9529 16.2646C14.9745 16.9565 15.4607 17.5044 16.0489 17.5044C16.6548 17.5044 17.1469 16.924 17.1469 16.2066C17.1489 15.4845 16.6567 14.9088 16.0509 14.9018Z" fill="white"/>
<path d="M23.9658 11.9901C22.7325 10.7155 19.8797 7.77855 19.1072 7.09365C18.666 6.70128 18.3641 6.49232 18.1013 6.39946C17.9817 6.35767 17.819 6.30891 17.6072 6.30891C17.4112 6.30891 17.1994 6.3507 16.9798 6.43428C16.4798 6.62234 15.9838 7.089 15.5014 7.54174L15.476 7.56495C15.0269 7.9875 14.5642 8.42398 14.2152 8.51453C14.0623 8.55632 13.9054 8.57722 13.7486 8.57722C13.3564 8.57722 13.0035 8.44256 12.8721 8.24289C12.8506 8.21039 12.8643 8.15699 12.9153 8.08037L12.9212 8.07109L14.0074 6.68503C14.8564 5.6774 15.6603 4.72783 17.5092 4.67675C17.5406 4.67675 17.5719 4.67443 17.6014 4.67443C18.7523 4.67443 19.9013 5.28504 20.0307 5.35701C21.1091 5.97923 22.2227 6.2973 23.3423 6.2973C24.5089 6.2973 25.7128 5.95601 26.9775 5.26646C26.8363 5.12484 26.6892 4.98786 26.5383 4.8532C25.4265 5.42434 24.3678 5.71223 23.3443 5.71223C22.3012 5.71223 21.2581 5.41505 20.2444 4.82998C20.1914 4.7998 18.9209 4.09168 17.5994 4.08936C17.5641 4.08936 17.5288 4.08936 17.4955 4.09168C15.9426 4.13579 15.0681 4.78819 14.4799 5.35933C13.9074 5.37558 13.4152 5.5381 12.976 5.68437C12.5839 5.81438 12.2467 5.92583 11.9153 5.92583C11.78 5.92583 11.5349 5.9119 11.5134 5.90958C11.133 5.89565 9.2213 5.34076 7.69979 4.65817C7.54489 4.78819 7.39588 4.92285 7.24883 5.05983C8.837 5.83064 10.7703 6.42732 11.382 6.47375C11.5526 6.48768 11.733 6.50858 11.9133 6.5109C12.3173 6.5109 12.7192 6.37624 13.1094 6.24854C13.3388 6.17193 13.5937 6.08835 13.8603 6.02798C13.7897 6.11156 13.7172 6.19515 13.6466 6.27873L12.5427 7.69033C12.4565 7.7948 12.2682 8.07109 12.3918 8.41238C12.4408 8.54936 12.5408 8.68169 12.6819 8.79314C12.9447 9.00209 13.4152 9.14371 13.8525 9.14371C14.0172 9.14371 14.176 9.12514 14.3191 9.08567C14.7819 8.96262 15.2662 8.50524 15.7799 8.02233C16.1896 7.63693 16.77 7.14937 17.2151 7.00542C17.3386 6.96595 17.4916 6.94041 17.6151 6.94041C17.6523 6.94041 17.6857 6.94273 17.719 6.94738C18.0131 6.99149 18.2974 7.1099 18.8052 7.56031C19.7111 8.36594 23.7168 12.5148 23.756 12.5566C23.758 12.5589 24.0148 12.8213 23.9972 13.2531C23.9874 13.4946 23.8737 13.7105 23.6776 13.8591C23.507 13.9868 23.3305 14.0541 23.1521 14.0541C22.8835 14.0541 22.6992 13.9055 22.6874 13.8939C22.6737 13.88 21.2992 12.3895 20.7953 11.888C20.715 11.809 20.6365 11.7371 20.5581 11.7371C20.515 11.7371 20.4777 11.758 20.4522 11.7951C20.3718 11.9112 20.462 12.0714 20.5659 12.1782L22.1698 14.0866C22.1718 14.089 22.3698 14.3072 22.3914 14.5997C22.4031 14.9155 22.2757 15.1802 22.011 15.3868C21.8228 15.5354 21.6306 15.6097 21.4424 15.6097C21.1953 15.6097 21.0228 15.4773 20.9855 15.4448L20.7561 15.1755C20.3365 14.6856 19.9013 14.1795 19.5836 13.8661C19.5072 13.7895 19.4229 13.7198 19.3444 13.7198C19.3052 13.7198 19.2699 13.7361 19.2444 13.7709C19.2091 13.8196 19.1836 13.9032 19.2738 14.0472C19.3111 14.1052 19.3542 14.154 19.3542 14.154L20.5248 15.7095C20.5346 15.7234 20.7659 16.0485 20.5503 16.3735L20.5091 16.4362C20.4738 16.4826 20.4365 16.5244 20.3993 16.5616C20.1993 16.7543 19.9326 16.7752 19.8268 16.7752C19.7699 16.7752 19.715 16.7705 19.6679 16.7589C19.5523 16.7334 19.4738 16.6962 19.4366 16.6428L19.4229 16.6243C19.3581 16.5453 18.7699 15.8326 18.2817 15.352C18.217 15.287 18.1366 15.208 18.0543 15.208C18.0131 15.208 17.9759 15.2266 17.9484 15.2637C17.8523 15.3891 17.9974 15.5772 18.0582 15.6445L19.0562 16.947C19.0542 16.9586 19.0425 16.9864 19.0189 17.0259C18.9837 17.084 18.8621 17.2279 18.5013 17.2813C18.4582 17.2883 18.4131 17.2906 18.368 17.2906C17.9955 17.2906 17.5974 17.077 17.3916 16.947C17.4857 16.7125 17.5327 16.4571 17.5327 16.1971C17.5327 15.2243 16.8661 14.4326 16.0446 14.4326C16.0269 14.4326 16.0073 14.4326 15.9916 14.4349C16.0191 13.9914 15.9661 13.151 15.2367 12.7795C15.0269 12.6727 14.8172 12.617 14.6152 12.617C14.4564 12.617 14.3034 12.6495 14.1584 12.7145C14.0074 12.3662 13.7564 12.1132 13.429 11.9808C13.2486 11.9065 13.0682 11.8694 12.8957 11.8694C12.5918 11.8694 12.3133 11.9762 12.0643 12.1852C11.8251 11.8346 11.4643 11.6256 11.0859 11.6256C10.7526 11.6256 10.433 11.7835 10.1977 12.0621C9.88794 11.7812 8.65465 10.8548 5.35675 9.96792C5.19597 9.92381 4.83128 9.80076 4.60579 9.72182C4.56854 9.9331 4.54109 10.1467 4.52148 10.3626C4.52148 10.3626 5.1293 10.5344 5.24891 10.5669C8.6174 11.4538 9.73108 12.3732 9.91931 12.5473C9.85461 12.7284 9.82323 12.9235 9.82127 13.1208C9.82127 13.945 10.386 14.616 11.084 14.616C11.1624 14.616 11.2389 14.6067 11.3153 14.5904C11.4212 15.1964 11.7545 15.6561 12.2682 15.8929C12.4172 15.9603 12.5702 15.9951 12.7172 15.9951C12.8133 15.9951 12.9094 15.9811 13.0055 15.9533C13.0996 16.2365 13.3133 16.5918 13.7878 16.8216C13.9544 16.9005 14.1211 16.9423 14.2838 16.9423C14.4172 16.9423 14.5466 16.9145 14.6701 16.8611C14.8975 17.5181 15.4407 17.9546 16.0465 17.9546C16.4465 17.9546 16.8328 17.7619 17.1131 17.4206C17.3543 17.5785 17.8602 17.8641 18.3739 17.8664C18.4405 17.8664 18.5033 17.8617 18.5641 17.8524C19.0719 17.7758 19.3091 17.5413 19.4189 17.3579C19.4385 17.3254 19.4562 17.2929 19.4719 17.2558C19.5915 17.2976 19.7248 17.3301 19.8758 17.3301C20.1542 17.3301 20.4209 17.2186 20.6895 16.9864C20.9542 16.7612 21.1424 16.4362 21.1698 16.1599C21.1698 16.1553 21.1698 16.153 21.1718 16.1483C21.262 16.1692 21.3522 16.1808 21.4443 16.1808C21.7306 16.1808 22.0129 16.074 22.2816 15.8674C22.8011 15.4634 22.8913 14.9387 22.8815 14.5928C22.9717 14.616 23.0658 14.6276 23.158 14.6276C23.4266 14.6276 23.6913 14.5324 23.9423 14.342C24.2638 14.0982 24.4579 13.7268 24.4874 13.2926C24.507 12.9978 24.4462 12.7006 24.3148 12.4452C25.1834 12.0017 27.1716 11.1427 29.5107 10.5182C29.497 10.3022 29.4695 10.091 29.4381 9.8797C26.6088 10.6273 24.4952 11.7115 23.9658 11.9901ZM16.0504 17.409C15.5014 17.409 15.0544 16.9029 15.0328 16.2574C15.0309 16.2017 15.0269 16.0554 14.9211 16.0554C14.8779 16.0554 14.8407 16.0856 14.7975 16.1321C14.676 16.2644 14.523 16.3991 14.2976 16.3991C14.1956 16.3991 14.0858 16.3712 13.9682 16.3132C13.3878 16.0345 13.38 15.5632 13.4035 15.3729C13.4094 15.3218 13.4113 15.2684 13.3819 15.2289L13.3466 15.1918H13.3113C13.2819 15.1918 13.2505 15.2057 13.2113 15.2405C13.0427 15.3798 12.8819 15.4472 12.7192 15.4472C12.629 15.4472 12.5369 15.4263 12.4447 15.3845C11.68 15.0316 11.7408 14.1772 11.7781 13.9218C11.7839 13.8707 11.7722 13.8289 11.7447 13.8034L11.6898 13.75L11.6388 13.808C11.4898 13.9775 11.2957 14.0704 11.0899 14.0704C10.6526 14.0704 10.2958 13.6478 10.2958 13.1301C10.2958 12.6123 10.6526 12.1898 11.0899 12.1921C11.4859 12.1921 11.8232 12.545 11.8722 13.0117L11.8996 13.2647L12.0173 13.0512C12.031 13.0256 12.3506 12.4522 12.9408 12.4522C13.0525 12.4522 13.1682 12.473 13.2858 12.5172C13.7564 12.6866 13.8348 13.1928 13.8486 13.4017C13.8564 13.5248 13.9309 13.5294 13.9446 13.5294C13.9858 13.5294 14.0152 13.4992 14.0368 13.4737C14.125 13.3646 14.3191 13.1812 14.6211 13.1812C14.7603 13.1812 14.9073 13.2206 15.0583 13.2973C15.8053 13.6757 15.4661 14.8017 15.4622 14.8133C15.3975 14.9991 15.3956 15.0826 15.4563 15.1291L15.4858 15.1453H15.5073C15.5407 15.1453 15.5838 15.1268 15.6524 15.0989C15.7544 15.0571 15.9073 14.9944 16.0504 14.9944C16.6132 15.0014 17.07 15.5447 17.07 16.2017C17.07 16.868 16.6112 17.409 16.0504 17.409Z" fill="#212121"/>
</g>
<defs>
<filter id="filter0_d_2368_200" x="0" y="0.929688" width="34.0166" height="29.3203" filterUnits="userSpaceOnUse" color-interpolation-filters="sRGB">
<feFlood flood-opacity="0" result="BackgroundImageFix"/>
<feColorMatrix in="SourceAlpha" type="matrix" values="0 0 0 0 0 0 0 0 0 0 0 0 0 0 0 0 0 0 127 0" result="hardAlpha"/>
<feOffset dy="4"/>
<feGaussianBlur stdDeviation="2"/>
<feComposite in2="hardAlpha" operator="out"/>
<feColorMatrix type="matrix" values="0 0 0 0 0 0 0 0 0 0 0 0 0 0 0 0 0 0 0.25 0"/>
<feBlend mode="normal" in2="BackgroundImageFix" result="effect1_dropShadow_2368_200"/>
<feBlend mode="normal" in="SourceGraphic" in2="effect1_dropShadow_2368_200" result="shape"/>
</filter>
</defs>
</svg>
