<?xml version="1.0" encoding="UTF-8" standalone="no"?>
<svg
   xmlns:dc="http://purl.org/dc/elements/1.1/"
   xmlns:cc="http://creativecommons.org/ns#"
   xmlns:rdf="http://www.w3.org/1999/02/22-rdf-syntax-ns#"
   xmlns:svg="http://www.w3.org/2000/svg"
   xmlns="http://www.w3.org/2000/svg"
   xmlns:sodipodi="http://sodipodi.sourceforge.net/DTD/sodipodi-0.dtd"
   xmlns:inkscape="http://www.inkscape.org/namespaces/inkscape"
   version="1.1"
   viewBox="0 0 100 83.333336"
   xml:space="preserve"
   id="svg5"
   sodipodi:docname="no-image.svg"
   width="100"
   height="83.333336"
   inkscape:version="0.92.3 (2405546, 2018-03-11)"><metadata
     id="metadata11"><rdf:RDF><cc:Work
         rdf:about=""><dc:format>image/svg+xml</dc:format><dc:type
           rdf:resource="http://purl.org/dc/dcmitype/StillImage" /></cc:Work></rdf:RDF></metadata><defs
     id="defs9" /><sodipodi:namedview
     pagecolor="#ffffff"
     bordercolor="#666666"
     borderopacity="1"
     objecttolerance="10"
     gridtolerance="10"
     guidetolerance="10"
     inkscape:pageopacity="0"
     inkscape:pageshadow="2"
     inkscape:window-width="1589"
     inkscape:window-height="876"
     id="namedview7"
     showgrid="false"
     inkscape:zoom="3.4766083"
     inkscape:cx="34.908475"
     inkscape:cy="44.700903"
     inkscape:window-x="51"
     inkscape:window-y="27"
     inkscape:window-maximized="0"
     inkscape:current-layer="svg5" /><g
     id="info"
     transform="translate(-0.3050847,61.587571)" /><g
     id="icons"
     style="fill:#e6e6e6;stroke-width:0.23999999"
     transform="matrix(4.1666667,0,0,4.1666667,0,-8.3333334)"><path
       d="M 24,6 C 24,3.8 22.2,2 20,2 H 4 C 1.8,2 0,3.8 0,6 v 12 c 0,2.2 1.8,4 4,4 h 16 c 2.2,0 4,-1.8 4,-4 z M 6,6 C 7.1,6 8,6.9 8,8 8,9.1 7.1,10 6,10 4.9,10 4,9.1 4,8 4,6.9 4.9,6 6,6 Z m 16,12 c 0,1.1 -0.9,2 -2,2 H 4.4 C 3.5,20 3.1,18.9 3.7,18.3 l 3.6,-3.6 c 0.4,-0.4 1,-0.4 1.4,0 l 0.6,0.6 c 0.4,0.4 1,0.4 1.4,0 l 6.6,-6.6 c 0.4,-0.4 1,-0.4 1.4,0 l 3,3 c 0.2,0.2 0.3,0.4 0.3,0.7 z"
       id="pic"
       style="fill:#e6e6e6;stroke-width:0.23999999"
       inkscape:connector-curvature="0" /></g></svg>