<svg width="18" height="21" viewBox="0 0 18 21" fill="none" xmlns="http://www.w3.org/2000/svg">
<path d="M8.82955 0C3.95771 0 0 4.0005 0 8.925C0 13.8495 3.95771 17.85 8.82955 17.85H9.34893V21C14.3974 18.543 17.6591 13.65 17.6591 8.925C17.6591 4.0005 13.7014 0 8.82955 0ZM9.86831 15.225H7.79077V13.125H9.86831V15.225ZM9.86831 11.55H7.79077C7.79077 8.1375 10.9071 8.4 10.9071 6.3C10.9071 5.145 9.97219 4.2 8.82955 4.2C7.6869 4.2 6.752 5.145 6.752 6.3H4.67446C4.67446 3.9795 6.53386 2.1 8.82955 2.1C11.1252 2.1 12.9846 3.9795 12.9846 6.3C12.9846 8.925 9.86831 9.1875 9.86831 11.55Z" fill="#FFC107"/>
</svg>
